<?xml version="1.0" encoding="UTF-8" standalone="no"?>
<!-- Created with Inkscape (http://www.inkscape.org/) -->

<svg
   xmlns:dc="http://purl.org/dc/elements/1.1/"
   xmlns:cc="http://creativecommons.org/ns#"
   xmlns:rdf="http://www.w3.org/1999/02/22-rdf-syntax-ns#"
   xmlns:svg="http://www.w3.org/2000/svg"
   xmlns="http://www.w3.org/2000/svg"
   xmlns:xlink="http://www.w3.org/1999/xlink"
   xmlns:sodipodi="http://sodipodi.sourceforge.net/DTD/sodipodi-0.dtd"
   xmlns:inkscape="http://www.inkscape.org/namespaces/inkscape"
   width="1920"
   height="960"
   viewBox="0 0 1920 960"
   id="svg2"
   version="1.1"
   inkscape:version="0.91 r"
   sodipodi:docname="banner.svg">
  <defs
     id="defs4">
    <clipPath
       id="clipPath3444"
       clipPathUnits="userSpaceOnUse">
      <path
         id="path3446"
         d="M 11.52,162 C 11.52,81.677 135.307,16.561 288,16.561 l 0,0 c 152.693,0 276.481,65.116 276.481,145.439 l 0,0 c 0,80.322 -123.788,145.439 -276.481,145.439 l 0,0 C 135.307,307.439 11.52,242.322 11.52,162"
         inkscape:connector-curvature="0" />
    </clipPath>
    <radialGradient
       spreadMethod="pad"
       r="1"
       id="radialGradient3452"
       gradientUnits="userSpaceOnUse"
       gradientTransform="matrix(56.027355,0,0,56.027355,1150.9506,-190.55355)"
       fy="0"
       fx="0"
       cy="0"
       cx="0">
      <stop
         style="stop-opacity:1;stop-color:#aeb2d5"
         offset="0"
         id="stop3454" />
      <stop
         style="stop-opacity:1;stop-color:#aeb2d5"
         offset="0.3"
         id="stop3456" />
      <stop
         style="stop-opacity:1;stop-color:#484c89"
         offset="0.75"
         id="stop3458" />
      <stop
         style="stop-opacity:1;stop-color:#484c89"
         offset="1"
         id="stop3460" />
    </radialGradient>
    <clipPath
       id="clipPath3468"
       clipPathUnits="userSpaceOnUse">
      <path
         id="path3470"
         d="M 0,324 576,324 576,0 0,0 0,324 Z"
         inkscape:connector-curvature="0" />
    </clipPath>
    <clipPath
       id="clipPath3480"
       clipPathUnits="userSpaceOnUse">
      <path
         id="path3482"
         d="M 0,324 576,324 576,0 0,0 0,324 Z"
         inkscape:connector-curvature="0" />
    </clipPath>
    <linearGradient
       inkscape:collect="always"
       id="linearGradient11301">
      <stop
         style="stop-color:#ffe052;stop-opacity:1"
         offset="0"
         id="stop11303" />
      <stop
         style="stop-color:#ffc331;stop-opacity:1"
         offset="1"
         id="stop11305" />
    </linearGradient>
    <linearGradient
       inkscape:collect="always"
       xlink:href="#linearGradient11301"
       id="linearGradient11307"
       x1="89.136749"
       y1="111.92053"
       x2="147.77737"
       y2="168.1012"
       gradientUnits="userSpaceOnUse"
       gradientTransform="matrix(0.55544915,0,0,0.55544915,1112.3732,172.01754)" />
    <linearGradient
       inkscape:collect="always"
       id="linearGradient9515">
      <stop
         style="stop-color:#387eb8;stop-opacity:1"
         offset="0"
         id="stop9517" />
      <stop
         style="stop-color:#366994;stop-opacity:1"
         offset="1"
         id="stop9519" />
    </linearGradient>
    <linearGradient
       inkscape:collect="always"
       xlink:href="#linearGradient9515"
       id="linearGradient9521"
       x1="55.549179"
       y1="77.070274"
       x2="110.14919"
       y2="131.85291"
       gradientUnits="userSpaceOnUse"
       gradientTransform="matrix(0.55544915,0,0,0.55544915,1112.3732,172.01754)" />
  </defs>
  <sodipodi:namedview
     id="base"
     pagecolor="#ffffff"
     bordercolor="#666666"
     borderopacity="1.0"
     inkscape:pageopacity="0.0"
     inkscape:pageshadow="2"
     inkscape:zoom="0.70710678"
     inkscape:cx="822.17161"
     inkscape:cy="443.98068"
     inkscape:document-units="px"
     inkscape:current-layer="layer1"
     showgrid="true"
     units="px"
     inkscape:window-width="1920"
     inkscape:window-height="1048"
     inkscape:window-x="1920"
     inkscape:window-y="32"
     inkscape:window-maximized="0"
     showguides="true"
     inkscape:guide-bbox="true"
     inkscape:snap-bbox="true"
     inkscape:object-nodes="true"
     inkscape:bbox-nodes="true"
     inkscape:snap-bbox-midpoints="true"
     inkscape:snap-center="true">
    <inkscape:grid
       type="xygrid"
       id="grid4201"
       empspacing="8" />
  </sodipodi:namedview>
  <metadata
     id="metadata7">
    <rdf:RDF>
      <cc:Work
         rdf:about="">
        <dc:format>image/svg+xml</dc:format>
        <dc:type
           rdf:resource="http://purl.org/dc/dcmitype/StillImage" />
        <dc:title></dc:title>
      </cc:Work>
    </rdf:RDF>
  </metadata>
  <g
     inkscape:label="Scene 1"
     inkscape:groupmode="layer"
     id="layer1"
     transform="translate(0,448)">
    <rect
       style="opacity:1;fill:#212121;fill-opacity:1;stroke:none;stroke-width:2;stroke-linecap:round;stroke-linejoin:round;stroke-miterlimit:4;stroke-dasharray:none;stroke-opacity:1"
       id="rect4174"
       width="1920"
       height="960"
       x="0"
       y="-448" />
    <circle
       style="opacity:1;fill:none;fill-opacity:1;stroke:#d81b60;stroke-width:3.77639771;stroke-linecap:round;stroke-linejoin:round;stroke-miterlimit:4;stroke-dasharray:none;stroke-opacity:1"
       id="path26748"
       cx="960"
       cy="32"
       r="302.11182" />
    <circle
       style="opacity:1;fill:#212121;fill-opacity:1;stroke:#d81b60;stroke-width:4;stroke-linecap:round;stroke-linejoin:round;stroke-miterlimit:4;stroke-dasharray:none;stroke-opacity:1"
       id="path4949-0"
       cx="758.60754"
       cy="-176.49214"
       r="64" />
    <path
       style="fill:#8cc84b"
       inkscape:connector-curvature="0"
       d="m 755.11375,-218.24849 c 2.11573,-1.21106 4.87187,-1.21658 6.98577,0 10.63555,6.00958 21.27476,12.00995 31.90847,18.02318 2.00012,1.12669 3.33782,3.3525 3.31764,5.65725 l 0,36.15645 c 0.0147,2.40014 -1.45514,4.67918 -3.56536,5.78016 -10.60068,5.97654 -21.19586,11.9604 -31.7947,17.93694 -2.15978,1.23496 -4.97096,1.13952 -7.06284,-0.19627 -3.17819,-1.84232 -6.36188,-3.67544 -9.54006,-5.51595 -0.64958,-0.38717 -1.38174,-0.69544 -1.84049,-1.32485 0.40553,-0.54683 1.13035,-0.61472 1.71938,-0.85325 1.32669,-0.42206 2.54512,-1.09915 3.76354,-1.75608 0.30828,-0.21094 0.68445,-0.1304 0.97988,0.0587 2.71761,1.5579 5.41136,3.16168 8.13814,4.70488 0.58169,0.33582 1.17071,-0.11013 1.66799,-0.38717 10.40251,-5.87928 20.81785,-11.73653 31.21852,-17.61765 0.38534,-0.18534 0.5982,-0.59454 0.56701,-1.01656 0.007,-11.92739 0.002,-23.85659 0.004,-35.78395 0.0441,-0.47893 -0.23304,-0.91933 -0.66609,-1.11568 -10.56399,-5.94899 -21.12247,-11.90717 -31.68461,-17.85803 -0.37801,-0.2568 -0.86611,-0.25866 -1.24412,-0.002 -10.56214,5.95267 -21.11878,11.91635 -31.68093,17.86536 -0.43121,0.19627 -0.72114,0.62939 -0.66976,1.11016 0.002,11.92736 0,23.85656 0,35.78576 -0.0367,0.42205 0.19082,0.82208 0.57435,1.00376 2.81853,1.59827 5.64072,3.18552 8.46109,4.77827 1.58909,0.85512 3.53967,1.36338 5.29024,0.70832 1.54506,-0.55416 2.62769,-2.13043 2.59833,-3.77088 0.0147,-11.85766 -0.007,-23.71712 0.0109,-35.57294 -0.0385,-0.52664 0.46058,-0.96152 0.97254,-0.91197 1.35422,-0.008 2.71027,-0.0187 4.06448,0.003 0.56518,-0.0133 0.95419,0.55416 0.88446,1.08448 -0.006,11.93288 0.0147,23.86573 -0.009,35.79861 0.004,3.18003 -1.30283,6.6408 -4.24431,8.19685 -3.62408,1.8772 -8.10327,1.47899 -11.68331,-0.32112 -3.09928,-1.54688 -6.05727,-3.37269 -9.1015,-5.02968 -2.11574,-1.09546 -3.57821,-3.3837 -3.56353,-5.782 l 0,-36.15645 c -0.0221,-2.35245 1.36889,-4.61864 3.43141,-5.7288 10.59884,-5.98205 21.19585,-11.96776 31.79286,-17.95163 l 0,0 z"
       id="path6411" />
    <path
       style="fill:#8cc84b"
       inkscape:connector-curvature="0"
       d="m 764.36022,-193.20283 c 4.62231,-0.29728 9.57125,-0.17627 13.73115,2.10104 3.22039,1.74506 5.00583,5.4077 5.06271,8.98589 -0.0899,0.48261 -0.59453,0.74869 -1.05512,0.71565 -1.34136,-0.002 -2.68273,0.0187 -4.02411,-0.008 -0.56884,0.0213 -0.89913,-0.5028 -0.9707,-1.00557 -0.38535,-1.71203 -1.31935,-3.40755 -2.93046,-4.23331 -2.47356,-1.23861 -5.34163,-1.17621 -8.03905,-1.15053 -1.96893,0.10453 -4.0865,0.27525 -5.7545,1.43312 -1.28081,0.87712 -1.66983,2.64789 -1.21292,4.07365 0.43122,1.02392 1.61295,1.35422 2.57999,1.65883 5.57099,1.45699 11.47412,1.31203 16.9387,3.22957 2.26252,0.78171 4.47551,2.30107 5.24987,4.67003 1.01291,3.17451 0.56885,6.96925 -1.69002,9.51803 -1.83131,2.09738 -4.49936,3.23874 -7.16009,3.85896 -3.53967,0.78904 -7.2133,0.80922 -10.80803,0.45874 -3.38003,-0.38533 -6.89769,-1.27346 -9.50703,-3.57637 -2.23133,-1.93773 -3.32131,-4.95627 -3.21305,-7.87021 0.0256,-0.49179 0.51563,-0.83494 0.98722,-0.79456 1.35055,-0.0107 2.70109,-0.0133 4.05164,0.002 0.53948,-0.0387 0.93951,0.42754 0.96703,0.93581 0.24955,1.63131 0.86244,3.34336 2.28455,4.31037 2.74513,1.77078 6.18939,1.64966 9.33271,1.6992 2.60384,-0.11546 5.52696,-0.1504 7.65186,-1.87168 1.12118,-0.9817 1.45331,-2.62402 1.15054,-4.03696 -0.32846,-1.19274 -1.57625,-1.74872 -2.64788,-2.11205 -5.49943,-1.73957 -11.46862,-1.10835 -16.91484,-3.07544 -2.21116,-0.78171 -4.3489,-2.25885 -5.1985,-4.53056 -1.1854,-3.21488 -0.64224,-7.19128 1.85333,-9.65381 2.43318,-2.44971 5.94533,-3.39288 9.285,-3.73054 l 0,0 z"
       id="path6413" />
    <circle
       style="opacity:1;fill:#212121;fill-opacity:1;stroke:#d81b60;stroke-width:4;stroke-linecap:round;stroke-linejoin:round;stroke-miterlimit:4;stroke-dasharray:none;stroke-opacity:1"
       id="path4949-0-7"
       cx="1168"
       cy="-175.99995"
       r="64" />
    <path
       inkscape:connector-curvature="0"
       d="m 1125.3333,-176.00001 c 0,12.3955 19.1029,22.44424 42.6666,22.44424 l 0,0 c 23.5637,0 42.6668,-10.04874 42.6668,-22.44424 l 0,0 c 0,-12.39536 -19.1031,-22.44426 -42.6668,-22.44426 l 0,0 c -23.5637,0 -42.6666,10.0489 -42.6666,22.44426"
       id="path3462"
       style="fill:url(#radialGradient3452);stroke:none" />
    <path
       style="fill:#777bb3;fill-opacity:1;fill-rule:nonzero;stroke:none"
       id="path3474"
       d="m 1167.9999,-155.22219 c 22.6434,0 40.9999,-9.30262 40.9999,-20.7779 0,-11.47514 -18.3565,-20.77789 -40.9999,-20.77789 -22.6433,0 -40.9999,9.30275 -40.9999,20.77789 0,11.47528 18.3566,20.7779 40.9999,20.7779"
       inkscape:connector-curvature="0" />
    <path
       style="fill:#000000;fill-opacity:1;fill-rule:nonzero;stroke:none"
       id="path3486"
       d="m 1148.5145,-173.42387 c 1.8619,0 3.2518,-0.34336 4.1313,-1.02022 0.8701,-0.66992 1.471,-1.83056 1.786,-3.44952 0.2936,-1.51328 0.1819,-2.56992 -0.3324,-3.14013 -0.5258,-0.5824 -1.6625,-0.87776 -3.3786,-0.87776 l -2.9754,0 -1.6496,8.48763 2.4187,0 z m -9.7319,10.45522 c -0.1381,0 -0.2693,-0.0616 -0.3571,-0.16853 -0.088,-0.10667 -0.1237,-0.2472 -0.097,-0.38272 l 4.3716,-22.4924 c 0.042,-0.21733 0.2328,-0.37453 0.4544,-0.37453 l 9.4219,0 c 2.9611,0 5.1651,0.804 6.5505,2.38994 1.3927,1.5943 1.8228,3.82286 1.2782,6.6236 -0.2216,1.14107 -0.6028,2.20078 -1.1329,3.14955 -0.5307,0.94984 -1.2321,1.82869 -2.085,2.61264 -1.021,0.95555 -2.1765,1.64845 -3.4315,2.05619 -1.235,0.40229 -2.8211,0.60632 -4.7141,0.60632 l -3.8152,0 -1.0895,5.60522 c -0.042,0.2176 -0.2328,0.3747 -0.4543,0.3747 l -4.8998,0 z"
       inkscape:connector-curvature="0" />
    <path
       style="fill:#ffffff;fill-opacity:1;fill-rule:nonzero;stroke:none"
       id="path3490"
       d="m 1148.127,-181.44865 2.5939,0 c 2.0711,0 2.7905,0.45448 3.035,0.72531 0.4055,0.44968 0.4821,1.39784 0.2213,2.74181 -0.2929,1.50464 -0.8358,2.57144 -1.6139,3.17054 -0.7966,0.61325 -2.0916,0.92405 -3.8489,0.92405 l -1.8571,0 1.4696,-7.56171 z m 4.4493,-5.40122 -9.4221,0 c -0.4432,0 -0.8242,0.31418 -0.9088,0.74922 l -4.3716,22.4924 c -0.053,0.27144 0.019,0.55216 0.1944,0.76558 0.176,0.21333 0.438,0.3369 0.7145,0.3369 l 4.8997,0 c 0.4434,0 0.8244,-0.31421 0.909,-0.74922 l 1.0166,-5.23072 3.4335,0 c 1.9417,0 3.5762,-0.21174 4.8579,-0.62915 1.318,-0.42824 2.5307,-1.15432 3.604,-2.15803 0.8876,-0.81666 1.6188,-1.73333 2.1728,-2.72485 0.5542,-0.99181 0.9523,-2.09784 1.1833,-3.28733 0.5733,-2.94814 0.1075,-5.30894 -1.3841,-7.01635 -1.4771,-1.69104 -3.7984,-2.54845 -6.899,-2.54845 m -7.0422,13.88885 2.9804,0 c 1.9755,0 3.4469,-0.37205 4.4138,-1.11635 0.9669,-0.74442 1.6191,-1.98688 1.958,-3.72792 0.3242,-1.6716 0.1765,-2.85122 -0.4431,-3.53842 -0.6203,-0.68718 -1.8609,-1.03086 -3.7223,-1.03086 l -3.3571,0 -1.8297,9.41355 m 7.0422,-12.96293 c 2.8344,0 4.9021,0.74384 6.2018,2.23162 1.2995,1.48782 1.6909,3.56451 1.1724,6.23072 -0.2133,1.0983 -0.5744,2.10246 -1.0826,3.01219 -0.5088,0.91032 -1.1731,1.74275 -1.9941,2.49752 -0.9784,0.91557 -2.0653,1.56805 -3.2613,1.95664 -1.196,0.38965 -2.7193,0.58363 -4.5711,0.58363 l -4.1969,0 -1.1622,5.97992 -4.8997,0 4.3716,-22.49224 9.4221,0"
       inkscape:connector-curvature="0" />
    <path
       style="fill:#000000;fill-opacity:1;fill-rule:nonzero;stroke:none"
       id="path3494"
       d="m 1171.6393,-168.94857 c -0.1384,0 -0.2693,-0.0616 -0.3571,-0.16853 -0.088,-0.10667 -0.1238,-0.24693 -0.097,-0.38272 l 1.9338,-9.952 c 0.184,-0.94645 0.1387,-1.62576 -0.1275,-1.9128 -0.1629,-0.17547 -0.6524,-0.46976 -2.0998,-0.46976 l -3.5034,0 -2.4313,12.51109 c -0.042,0.2176 -0.2328,0.3747 -0.4545,0.3747 l -4.8611,0 c -0.1384,0 -0.2693,-0.0616 -0.3572,-0.16854 -0.088,-0.10666 -0.1238,-0.2472 -0.097,-0.38272 l 4.3716,-22.4924 c 0.042,-0.21733 0.2328,-0.37453 0.4545,-0.37453 l 4.8611,0 c 0.1384,0 0.2693,0.0616 0.3573,0.16827 0.088,0.10666 0.1234,0.24693 0.097,0.38288 l -1.0549,5.42869 3.7688,0 c 2.8711,0 4.818,0.50616 5.952,1.54752 1.1558,1.06235 1.5165,2.76096 1.072,5.04923 l -2.0339,10.4668 c -0.042,0.2176 -0.2328,0.37469 -0.4545,0.37469 l -4.9383,0 z"
       inkscape:connector-curvature="0" />
    <path
       style="fill:#ffffff;fill-opacity:1;fill-rule:nonzero;stroke:none"
       id="path3498"
       d="m 1168.8735,-192.82979 -4.861,0 c -0.4434,0 -0.8244,0.31418 -0.909,0.74922 l -4.3716,22.4924 c -0.053,0.27144 0.019,0.55216 0.1944,0.76558 0.176,0.21333 0.4379,0.3369 0.7145,0.3369 l 4.8611,0 c 0.4432,0 0.8244,-0.31421 0.909,-0.74925 l 2.3584,-12.13653 3.1218,0 c 1.4449,0 1.7481,0.30864 1.7603,0.32189 0.088,0.0944 0.2029,0.53104 0.013,1.50941 l -1.9337,9.952 c -0.053,0.27144 0.019,0.55216 0.1944,0.76558 0.176,0.21333 0.4379,0.3369 0.7145,0.3369 l 4.9382,0 c 0.4432,0 0.8244,-0.31421 0.909,-0.74925 l 2.0338,-10.4668 c 0.4773,-2.45693 0.069,-4.29997 -1.2131,-5.47837 -1.2235,-1.1236 -3.2729,-1.66976 -6.2653,-1.66976 l -3.2074,0 0.948,-4.87731 c 0.053,-0.27144 -0.019,-0.55229 -0.1944,-0.76557 -0.176,-0.21334 -0.438,-0.33704 -0.7145,-0.33704 m 0,0.92592 -1.1622,5.97992 4.3305,0 c 2.7249,0 4.6044,0.47562 5.6388,1.42562 1.0344,0.95062 1.3442,2.49088 0.9308,4.62006 l -2.0339,10.46664 -4.9383,0 1.9338,-9.95182 c 0.22,-1.1321 0.1392,-1.90432 -0.2429,-2.31605 -0.3823,-0.41173 -1.1954,-0.61789 -2.4391,-0.61789 l -3.8852,0 -2.504,12.88576 -4.8611,0 4.3716,-22.49224 4.8611,0"
       inkscape:connector-curvature="0" />
    <path
       style="fill:#000000;fill-opacity:1;fill-rule:nonzero;stroke:none"
       id="path3502"
       d="m 1186.7576,-173.42387 c 1.8618,0 3.2518,-0.34336 4.1313,-1.02022 0.8701,-0.66976 1.471,-1.8304 1.7861,-3.44952 0.2937,-1.51328 0.1819,-2.56992 -0.3325,-3.14013 -0.5258,-0.5824 -1.6626,-0.87776 -3.3786,-0.87776 l -2.9755,0 -1.6495,8.48763 2.4187,0 z m -9.7318,10.45522 c -0.1381,0 -0.2693,-0.0616 -0.3571,-0.16853 -0.088,-0.10667 -0.1237,-0.2472 -0.097,-0.38272 l 4.3716,-22.4924 c 0.042,-0.21733 0.2328,-0.37453 0.4546,-0.37453 l 9.4217,0 c 2.9613,0 5.1651,0.804 6.5506,2.38994 1.3928,1.59414 1.8227,3.8227 1.2783,6.6236 -0.2219,1.14107 -0.603,2.20078 -1.1331,3.14955 -0.5307,0.94984 -1.2321,1.82869 -2.085,2.61264 -1.021,0.95555 -2.1765,1.64845 -3.4315,2.05619 -1.235,0.40229 -2.8211,0.60632 -4.7141,0.60632 l -3.8153,0 -1.0891,5.60522 c -0.042,0.2176 -0.2328,0.3747 -0.4546,0.3747 l -4.8997,0 z"
       inkscape:connector-curvature="0" />
    <path
       style="fill:#ffffff;fill-opacity:1;fill-rule:nonzero;stroke:none"
       id="path3506"
       d="m 1186.3701,-181.44865 2.5938,0 c 2.0712,0 2.7906,0.45448 3.0351,0.72531 0.4057,0.44968 0.4822,1.39784 0.2213,2.74165 -0.2929,1.5048 -0.836,2.5716 -1.6139,3.1707 -0.7966,0.61325 -2.0917,0.92405 -3.8489,0.92405 l -1.8569,0 1.4694,-7.56171 z m 4.4492,-5.40122 -9.4219,0 c -0.4432,0 -0.8242,0.31418 -0.9088,0.74922 l -4.3716,22.4924 c -0.053,0.27144 0.019,0.55216 0.1944,0.76558 0.176,0.21333 0.438,0.3369 0.7145,0.3369 l 4.8997,0 c 0.4432,0 0.8244,-0.31421 0.909,-0.74922 l 1.0165,-5.23072 3.4335,0 c 1.9416,0 3.5762,-0.21174 4.8578,-0.62915 1.3181,-0.42824 2.531,-1.15448 3.6043,-2.15835 0.8877,-0.8165 1.6186,-1.73301 2.1726,-2.72453 0.5541,-0.99181 0.9523,-2.09784 1.1833,-3.28733 0.5733,-2.9483 0.1075,-5.3091 -1.3841,-7.01651 -1.4772,-1.69088 -3.7983,-2.54829 -6.8991,-2.54829 m -7.0419,13.88885 2.9802,0 c 1.9755,0 3.4469,-0.37205 4.4137,-1.11635 0.9672,-0.74442 1.6192,-1.98688 1.9581,-3.72792 0.3243,-1.6716 0.1768,-2.85122 -0.4431,-3.53842 -0.6204,-0.68718 -1.861,-1.03086 -3.7224,-1.03086 l -3.3571,0 -1.8294,9.41355 m 7.0419,-12.96293 c 2.8344,0 4.9022,0.74384 6.2019,2.23162 1.2997,1.48782 1.6909,3.56451 1.1724,6.23072 -0.2134,1.0983 -0.5744,2.10246 -1.0826,3.01219 -0.5088,0.91032 -1.1732,1.74275 -1.9941,2.49752 -0.9784,0.91557 -2.0653,1.56805 -3.2613,1.95664 -1.196,0.38965 -2.7193,0.58363 -4.5711,0.58363 l -4.1969,0 -1.1621,5.97992 -4.8997,0 4.3716,-22.49224 9.4219,0"
       inkscape:connector-curvature="0" />
    <circle
       style="opacity:1;fill:#212121;fill-opacity:1;stroke:#d81b60;stroke-width:4;stroke-linecap:round;stroke-linejoin:round;stroke-miterlimit:4;stroke-dasharray:none;stroke-opacity:1"
       id="path4949-0-7-6"
       cx="757.33331"
       cy="247.04012"
       r="64" />
    <circle
       style="opacity:1;fill:#212121;fill-opacity:1;stroke:#d81b60;stroke-width:4;stroke-linecap:round;stroke-linejoin:round;stroke-miterlimit:4;stroke-dasharray:none;stroke-opacity:1"
       id="path4949-0-7-6-0"
       cx="1168"
       cy="240"
       r="64" />
    <path
       id="path8615"
       d="m 1167.7793,209.49301 c -15.5703,0 -14.598,6.75216 -14.598,6.75216 l 0.019,6.9952 14.8583,0 0,2.10029 -20.76,0 c 0,0 -9.9633,-1.12995 -9.9633,14.58053 0,15.71048 8.6962,15.15336 8.6962,15.15336 l 5.19,0 0,-7.29025 c 0,0 -0.2798,-8.69628 8.5573,-8.69628 8.8374,0 14.7368,0 14.7368,0 0,0 8.2798,0.13387 8.2798,-8.00195 0,-8.13576 0,-13.45226 0,-13.45226 0,0 1.257,-8.1408 -15.0144,-8.1408 z m -8.193,4.70394 c 1.4784,0 2.673,1.19483 2.673,2.6731 0,1.47829 -1.1946,2.67312 -2.673,2.67312 -1.4782,0 -2.6731,-1.19483 -2.6731,-2.67312 0,-1.47827 1.1949,-2.6731 2.6731,-2.6731 z"
       style="color:#000000;display:inline;overflow:visible;visibility:visible;opacity:1;fill:url(#linearGradient9521);fill-opacity:1;fill-rule:nonzero;stroke:none;stroke-width:1;stroke-linecap:butt;stroke-linejoin:miter;stroke-miterlimit:4;stroke-dasharray:none;stroke-dashoffset:0;stroke-opacity:1;marker:none;marker-start:none;marker-mid:none;marker-end:none"
       inkscape:connector-curvature="0" />
    <path
       style="color:#000000;display:inline;overflow:visible;visibility:visible;opacity:1;fill:url(#linearGradient11307);fill-opacity:1;fill-rule:nonzero;stroke:none;stroke-width:1;stroke-linecap:butt;stroke-linejoin:miter;stroke-miterlimit:4;stroke-dasharray:none;stroke-dashoffset:0;stroke-opacity:1;marker:none;marker-start:none;marker-mid:none;marker-end:none"
       d="m 1168.2215,270.50693 c 15.5701,0 14.5978,-6.75218 14.5978,-6.75218 l -0.027,-6.99517 -14.8582,0 0,-2.10031 20.7598,0 c 0,0 9.9634,1.12993 9.9634,-14.58055 0,-15.71048 -8.6962,-15.15334 -8.6962,-15.15334 l -5.1902,0 0,7.29027 c 0,0 0.28,8.69624 -8.5573,8.69624 -8.8371,0 -14.7368,0 -14.7368,0 0,0 -8.2796,-0.13387 -8.2796,8.00194 0,8.13579 0,13.4523 0,13.4523 0,0 -1.2571,8.1408 15.0145,8.1408 z m 8.1928,-4.70398 c -1.4782,0 -2.6731,-1.1948 -2.6731,-2.67309 0,-1.47829 1.1949,-2.67309 2.6731,-2.67309 1.4784,0 2.673,1.1948 2.673,2.67309 0,1.47829 -1.1946,2.67309 -2.673,2.67309 z"
       id="path8620"
       inkscape:connector-curvature="0" />
    <path
       inkscape:connector-curvature="0"
       style="opacity:1;fill:#d81b60;fill-opacity:1;stroke:none;stroke-width:8;stroke-linecap:round;stroke-linejoin:round;stroke-miterlimit:4;stroke-dasharray:none;stroke-opacity:1"
       d="m 960,-152 c -101.936,0 -184,81.69679 -184,183.17773 l 0,1.64454 C 776,134.30321 858.064,216 960,216 c 101.936,0 184,-81.69679 184,-183.17773 l 0,-1.64454 C 1144,-70.30321 1061.936,-152 960,-152 Z m 0,36 c 32.2263,0 62.053,10.32594 86.3652,27.83789 a 24.000011,24.000011 0 0 1 32.4297,1.36914 24.000011,24.000011 0 0 1 1.3692,32.42578 C 1097.6756,-30.05508 1108,-0.22585 1108,32 c 0,32.22585 -10.3244,62.05313 -27.8359,86.36523 a 24.000011,24.000011 0 0 1 -1.3692,32.42969 24.000011,24.000011 0 0 1 -32.4297,1.36719 C 1022.053,169.67406 992.2263,180 960,180 c -32.2257,0 -62.0532,-10.32454 -86.3652,-27.83594 a 24.000011,24.000011 0 0 1 -32.4278,-1.36914 24.000011,24.000011 0 0 1 -1.3691,-32.42969 C 822.3259,94.05296 812,64.22626 812,32 c 0,-32.22585 10.3244,-62.05508 27.8359,-86.36719 a 24.000011,24.000011 0 0 1 1.3692,-32.42773 24.000011,24.000011 0 0 1 32.4297,-1.36719 C 897.947,-105.67392 927.7739,-116 960,-116 Z m 0,8 c -30.2903,0 -58.32,9.60312 -81.2187,25.92969 a 24.000011,24.000011 0 0 1 -3.6348,29.21679 24.000011,24.000011 0 0 1 -29.2246,3.64258 C 829.5997,-26.31405 820,1.71414 820,32 c 0,30.29035 9.6031,58.31999 25.9297,81.21875 a 24.000011,24.000011 0 0 1 29.2168,3.63477 24.000011,24.000011 0 0 1 3.6425,29.22265 C 901.6864,162.39929 929.7132,172 960,172 c 30.2903,0 58.32,-9.60313 81.2187,-25.92969 a 24.000011,24.000011 0 0 1 3.6348,-29.21679 24.000011,24.000011 0 0 1 29.2227,-3.64258 C 1090.3993,90.31364 1100,62.28685 1100,32 c 0,-30.28937 -9.6021,-58.3204 -25.9277,-81.21875 a 24.000011,24.000011 0 0 1 -29.2188,-3.63477 24.000011,24.000011 0 0 1 -3.6426,-29.22265 C 1018.3136,-98.39929 990.2868,-108 960,-108 Z m -28.4238,52.29883 a 14.0014,14.0014 0 0 1 10.039,4.25976 L 960,-33.05469 978.3848,-51.43945 a 14.0014,14.0014 0 0 1 19.789,-0.29102 14.0014,14.0014 0 0 1 0.01,20.08985 l -18.3847,18.38476 25.455,25.45508 18.3848,-18.38477 a 14.0014,14.0014 0 0 1 19.791,-0.28906 14.0014,14.0014 0 0 1 0.01,20.08789 l -18.3847,18.38477 18.3847,18.38476 a 14.0014,14.0014 0 0 1 0.291,19.79102 14.0014,14.0014 0 0 1 -20.0898,0.008 l -18.3868,-18.38476 -25.455,25.45507 18.3847,18.38477 a 14.0014,14.0014 0 0 1 0.2891,19.79101 14.0014,14.0014 0 0 1 -20.0879,0.01 L 960,97.05273 941.6152,115.43555 A 14.0014,14.0014 0 1 1 921.8164,95.63672 L 940.1992,77.25195 914.7461,51.79883 896.3613,70.18359 A 14.0014,14.0014 0 1 1 876.5625,50.38477 L 894.9453,32 876.5606,13.61523 a 14.0014,14.0014 0 1 1 19.7988,-19.79882 l 18.3867,18.38476 25.4551,-25.45508 -18.3848,-18.38671 a 14.0014,14.0014 0 0 1 9.7598,-24.0586 l 0,-0.002 z M 960,6.54492 934.5449,32 960,57.45508 985.4551,32 960,6.54492 Z"
       id="rect4148-6" />
    <g
       id="g4323"
       transform="matrix(8.6990508,0,0,8.6990508,-6641.6443,-1759.9615)">
      <path
         sodipodi:nodetypes="ccscccssccsccscscccccccsccccccccccccccscscccccsccscccc"
         inkscape:connector-curvature="0"
         id="path4169-7-5-7"
         d="m 850.49708,225.91349 c -0.19586,0.0105 -0.22878,0.0256 -0.6875,0.28906 -0.19664,0.11295 -0.39039,0.22234 -0.42969,0.24414 -0.0393,0.0218 -0.13273,0.0754 -0.20703,0.11914 -0.0743,0.0437 -0.15886,0.0941 -0.18946,0.11133 -0.0506,0.0285 -0.31814,0.18111 -1.23242,0.70703 -0.17479,0.10055 -0.33903,0.19604 -0.36523,0.21094 -0.0262,0.0149 -0.187,0.10658 -0.35742,0.20508 -0.17042,0.0985 -0.3369,0.19429 -0.3711,0.21289 -0.10129,0.055 -0.25159,0.21432 -0.30859,0.32812 -0.1052,0.20922 -0.0977,0.0771 -0.0977,2.36914 0,2.02002 9.2e-4,2.14682 0.0449,2.26172 0.0746,0.19489 0.16917,0.31924 0.32032,0.42188 0.0509,0.0345 0.0956,0.0644 0.0996,0.0644 0.004,0 0.0859,0.0448 0.18359,0.10156 0.0978,0.0568 0.18059,0.10352 0.18359,0.10352 0.003,0 0.0519,0.0289 0.10742,0.0625 0.0555,0.0336 0.13258,0.0794 0.17188,0.10156 0.0906,0.0512 0.3746,0.2131 0.4375,0.25 0.0262,0.0154 0.11963,0.0689 0.20703,0.11914 0.0874,0.0502 0.17888,0.10374 0.20508,0.11914 0.0563,0.0331 0.44607,0.25635 0.54883,0.31445 0.0393,0.0222 0.11637,0.068 0.17187,0.10157 0.0555,0.0336 0.10442,0.0605 0.10742,0.0605 0.003,0 0.0643,0.0356 0.13672,0.0781 0.0724,0.0425 0.16383,0.0952 0.20313,0.11719 0.0393,0.022 0.22616,0.12733 0.41406,0.23632 0.40916,0.23729 0.44356,0.25412 0.60352,0.29102 0.11279,0.0262 0.14933,0.0279 0.26367,0.008 0.0892,-0.0157 0.25055,-0.0698 0.28515,-0.0957 0.0167,-0.0125 0.16218,-0.0973 0.30664,-0.17774 0.0471,-0.0262 0.2339,-0.13338 0.41407,-0.23828 0.18017,-0.10489 0.35913,-0.20837 0.39843,-0.23047 0.0631,-0.0355 0.62997,-0.36069 0.75586,-0.43359 0.0897,-0.052 0.36485,-0.21 0.43555,-0.25 0.0389,-0.022 0.10619,-0.0617 0.15039,-0.0879 0.0943,-0.056 0.16537,-0.0958 0.26367,-0.15039 0.0393,-0.0218 0.13274,-0.0753 0.20703,-0.11914 0.0743,-0.0437 0.17456,-0.10261 0.22266,-0.12891 0.0481,-0.0263 0.12382,-0.0704 0.16992,-0.0996 0.046,-0.0292 0.0878,-0.0527 0.0918,-0.0527 0.0294,0 0.19212,-0.12517 0.26172,-0.20117 0.10029,-0.10954 0.16376,-0.24035 0.19726,-0.40039 0.0365,-0.17408 0.0384,-4.10535 0.002,-4.28125 -0.0308,-0.14897 -0.10076,-0.2896 -0.19336,-0.39258 -0.099,-0.11014 -0.15122,-0.14491 -0.59375,-0.39453 -0.0393,-0.0222 -0.15684,-0.0894 -0.26172,-0.15039 -0.15958,-0.0928 -0.93798,-0.54172 -1.09766,-0.63282 -0.0262,-0.0149 -0.13341,-0.0757 -0.23828,-0.13672 -0.10487,-0.061 -0.22242,-0.13044 -0.26172,-0.15234 -0.0393,-0.0219 -0.24337,-0.13716 -0.45312,-0.25781 -0.20975,-0.12064 -0.49025,-0.28122 -0.62305,-0.35742 -0.29727,-0.17061 -0.38539,-0.1992 -0.60351,-0.1875 z"
         style="fill:none;fill-opacity:1;fill-rule:evenodd;stroke:#ffffff;stroke-width:0.5;stroke-linecap:round;stroke-linejoin:round;stroke-miterlimit:4;stroke-dasharray:none;stroke-dashoffset:0;stroke-opacity:1" />
      <path
         sodipodi:nodetypes="ccscccssccsccscscccccccsccccccccccccccscscccccsccscccc"
         inkscape:connector-curvature="0"
         id="path4169-7-5"
         d="m 850.49688,225.90465 c -0.19586,0.0105 -0.22878,0.0256 -0.6875,0.28906 -0.19664,0.11295 -0.39039,0.22234 -0.42969,0.24414 -0.0393,0.0218 -0.13273,0.0754 -0.20703,0.11914 -0.0743,0.0437 -0.15886,0.0941 -0.18946,0.11133 -0.0506,0.0285 -0.31814,0.18111 -1.23242,0.70703 -0.17479,0.10055 -0.33903,0.19604 -0.36523,0.21094 -0.0262,0.0149 -0.187,0.10658 -0.35742,0.20508 -0.17042,0.0985 -0.3369,0.19429 -0.3711,0.21289 -0.10129,0.055 -0.25159,0.21432 -0.30859,0.32812 -0.1052,0.20922 -0.0977,0.0771 -0.0977,2.36914 0,2.02002 9.2e-4,2.14682 0.0449,2.26172 0.0746,0.19489 0.16917,0.31924 0.32032,0.42188 0.0509,0.0345 0.0956,0.0644 0.0996,0.0644 0.004,0 0.0859,0.0448 0.18359,0.10156 0.0978,0.0568 0.18059,0.10352 0.18359,0.10352 0.003,0 0.0519,0.0289 0.10742,0.0625 0.0555,0.0336 0.13258,0.0794 0.17188,0.10156 0.0906,0.0512 0.3746,0.2131 0.4375,0.25 0.0262,0.0154 0.11963,0.0689 0.20703,0.11914 0.0874,0.0502 0.17888,0.10374 0.20508,0.11914 0.0563,0.0331 0.44607,0.25635 0.54883,0.31445 0.0393,0.0222 0.11637,0.068 0.17187,0.10157 0.0555,0.0336 0.10442,0.0605 0.10742,0.0605 0.003,0 0.0643,0.0356 0.13672,0.0781 0.0724,0.0425 0.16383,0.0952 0.20313,0.11719 0.0393,0.022 0.22616,0.12733 0.41406,0.23632 0.40916,0.23729 0.44356,0.25412 0.60352,0.29102 0.11279,0.0262 0.14933,0.0279 0.26367,0.008 0.0892,-0.0157 0.25055,-0.0698 0.28515,-0.0957 0.0167,-0.0125 0.16218,-0.0973 0.30664,-0.17774 0.0471,-0.0262 0.2339,-0.13338 0.41407,-0.23828 0.18017,-0.10489 0.35913,-0.20837 0.39843,-0.23047 0.0631,-0.0355 0.62997,-0.36069 0.75586,-0.43359 0.0897,-0.052 0.36485,-0.21 0.43555,-0.25 0.0389,-0.022 0.10619,-0.0617 0.15039,-0.0879 0.0943,-0.056 0.16537,-0.0958 0.26367,-0.15039 0.0393,-0.0218 0.13274,-0.0753 0.20703,-0.11914 0.0743,-0.0437 0.17456,-0.10261 0.22266,-0.12891 0.0481,-0.0263 0.12382,-0.0704 0.16992,-0.0996 0.046,-0.0292 0.0878,-0.0527 0.0918,-0.0527 0.0294,0 0.19212,-0.12517 0.26172,-0.20117 0.10029,-0.10954 0.16376,-0.24035 0.19726,-0.40039 0.0365,-0.17408 0.0384,-4.10535 0.002,-4.28125 -0.0308,-0.14897 -0.10076,-0.2896 -0.19336,-0.39258 -0.099,-0.11014 -0.15122,-0.14491 -0.59375,-0.39453 -0.0393,-0.0222 -0.15684,-0.0894 -0.26172,-0.15039 -0.15958,-0.0928 -0.93798,-0.54172 -1.09766,-0.63282 -0.0262,-0.0149 -0.13341,-0.0757 -0.23828,-0.13672 -0.10487,-0.061 -0.22242,-0.13044 -0.26172,-0.15234 -0.0393,-0.0219 -0.24337,-0.13716 -0.45312,-0.25781 -0.20975,-0.12064 -0.49025,-0.28122 -0.62305,-0.35742 -0.29727,-0.17061 -0.38539,-0.1992 -0.60351,-0.1875 z"
         style="fill:#9b4f96;fill-opacity:1;fill-rule:evenodd;stroke:none;stroke-width:3;stroke-linecap:round;stroke-linejoin:round;stroke-miterlimit:4;stroke-dasharray:none;stroke-dashoffset:0;stroke-opacity:1" />
      <path
         sodipodi:nodetypes="cccccccccccccccccccccccccccccccc"
         inkscape:transform-center-y="1.2029797"
         inkscape:transform-center-x="-0.061628969"
         id="path4169-7-58"
         d="m 846.40458,233.17148 c 0.10702,0.16437 0.15609,0.16189 0.61361,0.42743 0.19614,0.11382 0.38775,0.22691 0.42628,0.25005 0.0385,0.0231 0.13166,0.0772 0.20669,0.11972 0.075,0.0425 0.16092,0.0905 0.19114,0.10841 0.05,0.0296 0.31592,0.18497 1.22852,0.7138 0.17447,0.10109 0.33929,0.19558 0.36529,0.21082 0.026,0.0152 0.18581,0.10866 0.35632,0.207 0.17051,0.0983 0.33671,0.19462 0.36992,0.21494 0.0983,0.0602 0.31141,0.11071 0.43846,0.10318 0.23379,-0.0135 0.11562,0.0461 2.10059,-1.09996 1.74938,-1.01001 1.85872,-1.07422 1.93624,-1.16974 0.13148,-0.16205 0.19189,-0.30613 0.2052,-0.48835 0.004,-0.0613 0.008,-0.11499 0.006,-0.11845 -0.002,-0.003 -0.004,-0.0968 -0.004,-0.20978 2.9e-4,-0.11309 -6.4e-4,-0.20815 -0.002,-0.21075 -10e-4,-0.003 -9.2e-4,-0.0594 4.2e-4,-0.12428 10e-4,-0.0649 0.002,-0.15452 0.002,-0.19963 -9.6e-4,-0.10406 -0.003,-0.43096 -0.002,-0.50389 2.3e-4,-0.0304 -1.5e-4,-0.13805 -3.4e-4,-0.23886 -2.3e-4,-0.10079 4e-4,-0.20678 6.4e-4,-0.23717 5.1e-4,-0.0653 -10e-4,-0.51449 -0.002,-0.63253 -4.2e-4,-0.0451 7.1e-4,-0.13478 0.002,-0.19963 10e-4,-0.0649 2.7e-4,-0.12073 -10e-4,-0.12333 -0.001,-0.003 -0.001,-0.0735 -7.2e-4,-0.15745 6.1e-4,-0.0839 5.3e-4,-0.18948 -8e-5,-0.23451 -6e-4,-0.045 -0.003,-0.25953 -0.002,-0.47675 9.2e-4,-0.47299 -0.002,-0.51119 -0.0497,-0.66817 -0.0195,-0.064 -0.0498,-0.0964 -0.0727,-0.13393 l -8.33304,4.82324 c 0.01,0.0164 0.01,0.0308 0.0212,0.0486 z"
         style="fill:#68217a;fill-opacity:1;fill-rule:evenodd;stroke:none;stroke-width:3;stroke-linecap:round;stroke-linejoin:round;stroke-miterlimit:4;stroke-dasharray:none;stroke-dashoffset:0;stroke-opacity:1"
         inkscape:connector-curvature="0" />
      <path
         sodipodi:nodetypes="cccccccccccccc"
         inkscape:connector-curvature="0"
         id="path4169-7"
         d="m 854.74858,233.08556 c 0.0888,-0.17487 0.0922,-0.21092 0.0934,-0.73992 5e-4,-0.22677 0.003,-0.44926 0.003,-0.49419 7.7e-4,-0.0449 0.001,-0.15265 3.4e-4,-0.23886 -6.9e-4,-0.0862 -0.002,-0.18463 -0.002,-0.21975 6.1e-4,-0.0581 0.002,-0.36607 0.004,-1.42082 3.2e-4,-0.20165 -2.6e-4,-0.39163 -6e-5,-0.42177 1.9e-4,-0.0301 10e-4,-0.21523 10e-4,-0.41207 -9e-5,-0.19684 1.9e-4,-0.38891 10e-4,-0.42783 0.003,-0.10963 -0.066,-0.30047 -0.1319,-0.41068 l -4.16736,2.41534 4.16621,2.41329 c 0.009,-0.0167 0.0218,-0.0238 0.0315,-0.0426 z"
         style="fill:#813787;fill-opacity:1;fill-rule:evenodd;stroke:none;stroke-width:3;stroke-linecap:round;stroke-linejoin:round;stroke-miterlimit:4;stroke-dasharray:none;stroke-dashoffset:0;stroke-opacity:1" />
      <path
         inkscape:connector-curvature="0"
         id="path4212"
         d="m 850.3625,227.86599 0,0.002 c -0.37745,0.0264 -0.74751,0.12184 -1.07031,0.28711 -1.12178,0.57435 -1.73576,1.75119 -1.55664,2.98437 0.0557,0.38337 0.20966,0.79191 0.41796,1.10938 0.0409,0.0623 0.078,0.11709 0.082,0.12109 0.004,0.004 0.0408,0.051 0.0801,0.10352 0.0983,0.13116 0.34692,0.38018 0.5,0.5 0.43082,0.3372 0.99729,0.5537 1.5586,0.5957 0.11997,0.009 0.4933,-0.007 0.61914,-0.0254 0.0612,-0.009 0.13541,-0.0213 0.16601,-0.0293 0.0306,-0.008 0.0911,-0.0228 0.13477,-0.0332 0.51119,-0.12136 1.03892,-0.44177 1.41992,-0.86328 0.10199,-0.11283 0.23852,-0.29293 0.29492,-0.39063 l 0.041,-0.0723 -0.5918,-0.3418 c -0.325,-0.18752 -0.60183,-0.3437 -0.61523,-0.3457 -0.0142,-0.002 -0.0477,0.032 -0.0801,0.0801 -0.15725,0.23352 -0.43181,0.4406 -0.70703,0.5332 -0.1998,0.0672 -0.25223,0.0743 -0.48438,0.0742 -0.25681,-1.7e-4 -0.3972,-0.0288 -0.59961,-0.1211 -0.15119,-0.0689 -0.24913,-0.13605 -0.39843,-0.27539 -0.25813,-0.24091 -0.41641,-0.57826 -0.44141,-0.9414 -0.0481,-0.69827 0.39904,-1.31409 1.08594,-1.5 0.16689,-0.0454 0.53262,-0.0511 0.6875,-0.01 0.13788,0.037 0.29216,0.0979 0.39453,0.15625 0.17235,0.0982 0.38571,0.29905 0.47851,0.44922 0.0192,0.031 0.0445,0.0548 0.0547,0.0547 0.0102,-1e-4 0.054,-0.0202 0.0977,-0.0449 0.0854,-0.0484 0.36711,-0.20996 0.44531,-0.25586 0.0262,-0.0154 0.11768,-0.0689 0.20508,-0.11914 0.0874,-0.0502 0.18766,-0.10821 0.22266,-0.12891 0.035,-0.0207 0.10595,-0.0604 0.15625,-0.0879 0.0503,-0.0275 0.0898,-0.0546 0.0898,-0.0606 0,-0.006 -0.0387,-0.0709 -0.0879,-0.14453 -0.34931,-0.52215 -0.8833,-0.92885 -1.47852,-1.125 -0.3572,-0.11767 -0.74364,-0.16116 -1.12109,-0.13476 z m 2.67187,2.15234 0,0.18164 -0.18164,0 0,0.36523 0.18164,0 0,0.36329 -0.18164,0 0,0.36523 0.18164,0 0,0.18164 0.36524,0 0,-0.18164 0.36328,0 0,0.18164 0.36523,0 0,-0.18164 0.18165,0 0,-0.36523 -0.18165,0 0,-0.36329 0.18165,0 0,-0.36523 -0.18165,0 0,-0.18164 -0.36523,0 0,0.18164 -0.36328,0 0,-0.18164 -0.36524,0 z m 0.36524,0.54687 0.36328,0 0,0.36329 -0.36328,0 0,-0.36329 z"
         style="fill:#ffffff;fill-opacity:1;fill-rule:evenodd;stroke:none;stroke-width:1px;stroke-linecap:butt;stroke-linejoin:miter;stroke-opacity:1" />
    </g>
  </g>
</svg>
